<svg width="100" height="24" viewBox="0 0 100 24" fill="none" xmlns="http://www.w3.org/2000/svg">
<path d="M39.3843 10.0807V8.52542C39.8547 8.52542 40.2964 8.43902 40.7092 8.2662C41.122 8.08379 41.4821 7.83417 41.7893 7.51735C42.0965 7.20052 42.3365 6.8309 42.5093 6.40847C42.6821 5.98604 42.7686 5.53 42.7686 5.04037C42.7686 4.55073 42.6821 4.0947 42.5093 3.67227C42.3365 3.24984 42.0965 2.88021 41.7893 2.56339C41.4821 2.24656 41.122 2.00175 40.7092 1.82893C40.2964 1.64652 39.8547 1.55531 39.3843 1.55531V0C40.3732 0 41.2468 0.216016 42.0053 0.648047C42.7734 1.07048 43.3734 1.66092 43.8054 2.41938C44.2471 3.17783 44.4679 4.0515 44.4679 5.04037C44.4679 6.01964 44.2471 6.8885 43.8054 7.64696C43.3734 8.40541 42.7734 9.00066 42.0053 9.43269C41.2468 9.86472 40.3732 10.0807 39.3843 10.0807ZM37.2961 10.0807V8.52542H39.3843V10.0807H37.2961ZM36.2161 10.0807V0H37.8866V10.0807H36.2161ZM37.2961 1.55531V0H39.3843V1.55531H37.2961Z" fill="white"/>
<path d="M48.9367 10.2535C48.2359 10.2535 47.6118 10.0951 47.0646 9.77831C46.5173 9.45189 46.0901 9.00546 45.7829 8.43902C45.4757 7.87257 45.322 7.21973 45.322 6.48047C45.322 5.74122 45.4805 5.08837 45.7973 4.52193C46.1141 3.95549 46.5461 3.51386 47.0934 3.19703C47.6406 2.87061 48.2743 2.7074 48.9943 2.7074C49.628 2.7074 50.204 2.87541 50.7224 3.21143C51.2409 3.53786 51.6489 4.01309 51.9465 4.63714C52.2538 5.26118 52.4074 6.00524 52.4074 6.8693H50.78C50.7896 6.24525 50.7176 5.73162 50.564 5.32839C50.42 4.92516 50.2088 4.62754 49.9304 4.43552C49.652 4.23391 49.3207 4.1331 48.9367 4.1331C48.5335 4.1331 48.1879 4.22431 47.8998 4.40672C47.6214 4.58913 47.4054 4.85795 47.2518 5.21318C47.0982 5.5588 47.0214 5.99564 47.0214 6.52368C47.0214 6.99411 47.1126 7.39734 47.295 7.73336C47.4774 8.06939 47.7222 8.32861 48.0294 8.51102C48.3463 8.68383 48.6967 8.77024 49.0807 8.77024C49.5032 8.77024 49.8536 8.67423 50.132 8.48222C50.4104 8.2806 50.6264 8.02619 50.78 7.71896L52.2634 8.35261C52.0617 8.73664 51.8073 9.07266 51.5001 9.36068C51.1929 9.6487 50.8232 9.86952 50.3912 10.0231C49.9592 10.1767 49.4743 10.2535 48.9367 10.2535ZM46.3733 6.8693L46.3877 5.58761H51.5721V6.8693H46.3733Z" fill="white"/>
<path d="M55.4887 10.0807L58.2969 2.88021H59.9675L57.0009 10.0807H55.4887ZM55.3735 10.0807L52.3925 2.88021H54.0486L56.8712 10.0807H55.3735Z" fill="white"/>
<path d="M63.7884 10.2535C63.0875 10.2535 62.4635 10.0951 61.9162 9.77831C61.369 9.45189 60.9418 9.00546 60.6345 8.43902C60.3273 7.87257 60.1737 7.21973 60.1737 6.48047C60.1737 5.74122 60.3321 5.08837 60.6489 4.52193C60.9658 3.95549 61.3978 3.51386 61.945 3.19703C62.4923 2.87061 63.1259 2.7074 63.846 2.7074C64.4796 2.7074 65.0557 2.87541 65.5741 3.21143C66.0925 3.53786 66.5006 4.01309 66.7982 4.63714C67.1054 5.26118 67.259 6.00524 67.259 6.8693H65.6317C65.6413 6.24525 65.5693 5.73162 65.4157 5.32839C65.2717 4.92516 65.0605 4.62754 64.782 4.43552C64.5036 4.23391 64.1724 4.1331 63.7884 4.1331C63.3851 4.1331 63.0395 4.22431 62.7515 4.40672C62.4731 4.58913 62.2571 4.85795 62.1034 5.21318C61.9498 5.5588 61.873 5.99564 61.873 6.52368C61.873 6.99411 61.9642 7.39734 62.1466 7.73336C62.3291 8.06939 62.5739 8.32861 62.8811 8.51102C63.1979 8.68383 63.5483 8.77024 63.9324 8.77024C64.3548 8.77024 64.7052 8.67423 64.9837 8.48222C65.2621 8.2806 65.4781 8.02619 65.6317 7.71896L67.115 8.35261C66.9134 8.73664 66.659 9.07266 66.3518 9.36068C66.0445 9.6487 65.6749 9.86952 65.2429 10.0231C64.8108 10.1767 64.326 10.2535 63.7884 10.2535ZM61.225 6.8693L61.2394 5.58761H66.4238V6.8693H61.225Z" fill="white"/>
<path d="M68.289 10.0807L68.3034 0H69.9164L69.902 10.0807H68.289Z" fill="white"/>
<path d="M74.8315 10.2535C74.1018 10.2535 73.4538 10.0951 72.8874 9.77831C72.3305 9.45189 71.8937 9.00546 71.5769 8.43902C71.26 7.87257 71.1016 7.21973 71.1016 6.48047C71.1016 5.74122 71.2552 5.08837 71.5625 4.52193C71.8793 3.95549 72.3161 3.51386 72.873 3.19703C73.4394 2.87061 74.0826 2.7074 74.8027 2.7074C75.5324 2.7074 76.1756 2.87061 76.7324 3.19703C77.2893 3.51386 77.7261 3.95549 78.0429 4.52193C78.3598 5.08837 78.5182 5.74122 78.5182 6.48047C78.5182 7.21973 78.3598 7.87257 78.0429 8.43902C77.7261 9.00546 77.2893 9.45189 76.7324 9.77831C76.1852 10.0951 75.5516 10.2535 74.8315 10.2535ZM74.8315 8.69823C75.2155 8.69823 75.5516 8.60703 75.8396 8.42461C76.1372 8.2326 76.3676 7.96858 76.5308 7.63256C76.7036 7.29653 76.7901 6.9125 76.7901 6.48047C76.7901 6.04844 76.7036 5.66441 76.5308 5.32839C76.3676 4.99236 76.1324 4.73314 75.8252 4.55073C75.5276 4.35872 75.1867 4.26271 74.8027 4.26271C74.4187 4.26271 74.0779 4.35872 73.7802 4.55073C73.4826 4.73314 73.2474 4.99236 73.0746 5.32839C72.9114 5.66441 72.8298 6.04844 72.8298 6.48047C72.8298 6.9125 72.9114 7.29653 73.0746 7.63256C73.2474 7.96858 73.4826 8.2326 73.7802 8.42461C74.0875 8.60703 74.4379 8.69823 74.8315 8.69823Z" fill="white"/>
<path d="M79.7671 12.9609V2.88021H81.2792L81.3801 4.20511V12.9609H79.7671ZM83.6554 10.2535C83.0506 10.2535 82.5273 10.0999 82.0857 9.79271C81.6537 9.47589 81.3225 9.03426 81.092 8.46782C80.8616 7.90138 80.7464 7.23893 80.7464 6.48047C80.7464 5.71242 80.8616 5.04997 81.092 4.49313C81.3225 3.92669 81.6537 3.48985 82.0857 3.18263C82.5273 2.86581 83.0506 2.7074 83.6554 2.7074C84.3083 2.7074 84.8747 2.86581 85.3547 3.18263C85.8444 3.48985 86.2236 3.92669 86.4924 4.49313C86.7709 5.04997 86.9101 5.71242 86.9101 6.48047C86.9101 7.23893 86.7709 7.90138 86.4924 8.46782C86.2236 9.03426 85.8444 9.47589 85.3547 9.79271C84.8747 10.0999 84.3083 10.2535 83.6554 10.2535ZM83.2522 8.78464C83.6362 8.78464 83.977 8.68863 84.2747 8.49662C84.5723 8.295 84.8075 8.02138 84.9803 7.67576C85.1627 7.33013 85.2539 6.9317 85.2539 6.48047C85.2539 6.02924 85.1675 5.63081 84.9947 5.28519C84.8315 4.93956 84.6011 4.67074 84.3035 4.47873C84.0058 4.28671 83.6602 4.19071 83.2666 4.19071C82.9018 4.19071 82.5753 4.28671 82.2873 4.47873C81.9993 4.67074 81.7737 4.93956 81.6105 5.28519C81.4569 5.63081 81.3801 6.02924 81.3801 6.48047C81.3801 6.9317 81.4569 7.33013 81.6105 7.67576C81.7737 8.02138 81.9945 8.295 82.2729 8.49662C82.5609 8.68863 82.8874 8.78464 83.2522 8.78464Z" fill="white"/>
<path d="M91.2978 10.2535C90.5969 10.2535 89.9729 10.0951 89.4256 9.77831C88.8784 9.45189 88.4512 9.00546 88.1439 8.43902C87.8367 7.87257 87.6831 7.21973 87.6831 6.48047C87.6831 5.74122 87.8415 5.08837 88.1583 4.52193C88.4752 3.95549 88.9072 3.51386 89.4544 3.19703C90.0017 2.87061 90.6353 2.7074 91.3554 2.7074C91.989 2.7074 92.5651 2.87541 93.0835 3.21143C93.6019 3.53786 94.01 4.01309 94.3076 4.63714C94.6148 5.26118 94.7684 6.00524 94.7684 6.8693H93.1411C93.1507 6.24525 93.0787 5.73162 92.9251 5.32839C92.7811 4.92516 92.5699 4.62754 92.2914 4.43552C92.013 4.23391 91.6818 4.1331 91.2978 4.1331C90.8945 4.1331 90.5489 4.22431 90.2609 4.40672C89.9825 4.58913 89.7665 4.85795 89.6129 5.21318C89.4592 5.5588 89.3824 5.99564 89.3824 6.52368C89.3824 6.99411 89.4736 7.39734 89.656 7.73336C89.8385 8.06939 90.0833 8.32861 90.3905 8.51102C90.7073 8.68383 91.0578 8.77024 91.4418 8.77024C91.8642 8.77024 92.2146 8.67423 92.4931 8.48222C92.7715 8.2806 92.9875 8.02619 93.1411 7.71896L94.6244 8.35261C94.4228 8.73664 94.1684 9.07266 93.8612 9.36068C93.5539 9.6487 93.1843 9.86952 92.7523 10.0231C92.3202 10.1767 91.8354 10.2535 91.2978 10.2535ZM88.7344 6.8693L88.7488 5.58761H93.9332V6.8693H88.7344Z" fill="white"/>
<path d="M96.8641 6.25005C96.8641 5.4724 97.0129 4.83395 97.3106 4.33472C97.6082 3.83548 97.9922 3.46585 98.4626 3.22584C98.9427 2.97622 99.4419 2.85141 99.9604 2.85141V4.39232C99.5187 4.39232 99.1011 4.45472 98.7075 4.57953C98.3234 4.69474 98.0114 4.88676 97.7714 5.15558C97.5314 5.4244 97.4114 5.77962 97.4114 6.22125L96.8641 6.25005ZM95.7984 10.0807V2.88021H97.4114V10.0807H95.7984Z" fill="white"/>
<path d="M43.2006 23.8272L39.2691 13.7465H40.9396L44.9719 23.8272H43.2006ZM35.1504 23.8272L39.1683 13.7465H40.8532L36.9217 23.8272H35.1504ZM37.0369 21.3502V19.8669H43.071V21.3502H37.0369Z" fill="white"/>
<path d="M47.236 21.811L46.2568 20.7022L50.001 16.6267H51.9452L47.236 21.811ZM45.6951 23.8272V13.7465H47.308V23.8272H45.6951ZM50.2747 23.8272L47.7401 20.0973L48.7913 18.974L52.19 23.8272H50.2747Z" fill="white"/>
<path d="M57.001 23.8272L56.929 20.1261C56.929 19.6365 56.8762 19.2285 56.7705 18.902C56.6649 18.5756 56.5017 18.326 56.2809 18.1532C56.0601 17.9804 55.7625 17.894 55.388 17.894C55.052 17.894 54.7544 17.966 54.4952 18.11C54.236 18.254 54.0199 18.4748 53.8471 18.7724L52.407 18.2684C52.5702 17.9516 52.7815 17.6539 53.0407 17.3755C53.2999 17.0971 53.6263 16.8763 54.0199 16.7131C54.4136 16.5403 54.884 16.4539 55.4313 16.4539C56.1225 16.4539 56.6985 16.5835 57.1594 16.8427C57.6298 17.1019 57.9802 17.4859 58.2107 17.9948C58.4411 18.5036 58.5563 19.1324 58.5563 19.8813V23.8272H57.001ZM54.956 24C54.1016 24 53.4343 23.808 52.9543 23.424C52.4838 23.0399 52.2486 22.4975 52.2486 21.7966C52.2486 21.0478 52.4982 20.4765 52.9975 20.0829C53.5063 19.6893 54.212 19.4925 55.1144 19.4925H57.3754L57.3898 20.731H55.6185C54.9752 20.731 54.524 20.8222 54.2648 21.0046C54.0151 21.1774 53.8903 21.427 53.8903 21.7534C53.8903 22.0319 54.0007 22.2527 54.2216 22.4159C54.452 22.5695 54.7688 22.6463 55.172 22.6463C55.5273 22.6463 55.8345 22.5647 56.0937 22.4015C56.3625 22.2287 56.5689 22.0079 56.7129 21.739C56.857 21.4606 56.929 21.163 56.929 20.8462H57.5338C57.5338 21.8254 57.3226 22.5983 56.9002 23.1647C56.4873 23.7216 55.8393 24 54.956 24Z" fill="white"/>
<path d="M65.1127 23.8272L65.0407 22.4879V13.7465H66.6392V23.8272H65.1127ZM62.7653 24C62.1125 24 61.5412 23.8464 61.0516 23.5392C60.5716 23.2223 60.1923 22.7807 59.9139 22.2143C59.6451 21.6478 59.5107 20.9854 59.5107 20.2269C59.5107 19.4589 59.6451 18.7964 59.9139 18.2396C60.1923 17.6731 60.5716 17.2363 61.0516 16.9291C61.5412 16.6123 62.1125 16.4539 62.7653 16.4539C63.3702 16.4539 63.8886 16.6123 64.3206 16.9291C64.7623 17.2363 65.0983 17.6731 65.3287 18.2396C65.5591 18.7964 65.6743 19.4589 65.6743 20.2269C65.6743 20.9854 65.5591 21.6478 65.3287 22.2143C65.0983 22.7807 64.7623 23.2223 64.3206 23.5392C63.8886 23.8464 63.3702 24 62.7653 24ZM63.1686 22.5311C63.5334 22.5311 63.855 22.4351 64.1334 22.2431C64.4215 22.0415 64.6423 21.7678 64.7959 21.4222C64.9591 21.0766 65.0407 20.6782 65.0407 20.2269C65.0407 19.7757 64.9591 19.3773 64.7959 19.0316C64.6423 18.686 64.4215 18.4172 64.1334 18.2252C63.855 18.0332 63.5286 17.9372 63.1542 17.9372C62.7701 17.9372 62.4293 18.0332 62.1317 18.2252C61.8341 18.4172 61.5988 18.686 61.426 19.0316C61.2628 19.3773 61.1764 19.7757 61.1668 20.2269C61.1764 20.6782 61.2628 21.0766 61.426 21.4222C61.5988 21.7678 61.8341 22.0415 62.1317 22.2431C62.4389 22.4351 62.7845 22.5311 63.1686 22.5311Z" fill="white"/>
<path d="M71.4322 24C70.7313 24 70.1073 23.8416 69.56 23.5248C69.0128 23.1983 68.5856 22.7519 68.2783 22.1855C67.9711 21.619 67.8175 20.9662 67.8175 20.2269C67.8175 19.4877 67.9759 18.8348 68.2927 18.2684C68.6096 17.7019 69.0416 17.2603 69.5888 16.9435C70.1361 16.6171 70.7697 16.4539 71.4898 16.4539C72.1234 16.4539 72.6995 16.6219 73.2179 16.9579C73.7364 17.2843 74.1444 17.7595 74.442 18.3836C74.7492 19.0076 74.9028 19.7517 74.9028 20.6158H73.2755C73.2851 19.9917 73.2131 19.4781 73.0595 19.0748C72.9155 18.6716 72.7043 18.374 72.4259 18.182C72.1474 17.9804 71.8162 17.8796 71.4322 17.8796C71.0289 17.8796 70.6833 17.9708 70.3953 18.1532C70.1169 18.3356 69.9009 18.6044 69.7473 18.9596C69.5936 19.3053 69.5168 19.7421 69.5168 20.2701C69.5168 20.7406 69.608 21.1438 69.7905 21.4798C69.9729 21.8158 70.2177 22.0751 70.5249 22.2575C70.8417 22.4303 71.1922 22.5167 71.5762 22.5167C71.9986 22.5167 72.349 22.4207 72.6275 22.2287C72.9059 22.0271 73.1219 21.7726 73.2755 21.4654L74.7588 22.0991C74.5572 22.4831 74.3028 22.8191 73.9956 23.1071C73.6883 23.3952 73.3187 23.616 72.8867 23.7696C72.4547 23.9232 71.9698 24 71.4322 24ZM68.8688 20.6158L68.8832 19.3341H74.0676V20.6158H68.8688Z" fill="white"/>
<path d="M75.9328 23.8272V16.6267H77.445L77.5458 17.9516V23.8272H75.9328ZM80.8148 23.8272V20.1405L82.4277 19.7085V23.8272H80.8148ZM85.7112 23.8272V20.1405L87.3097 19.7085V23.8272H85.7112ZM80.8148 20.1405C80.8148 19.5645 80.7476 19.1228 80.6132 18.8156C80.4884 18.4988 80.306 18.278 80.066 18.1532C79.8355 18.0284 79.5619 17.966 79.2451 17.966C78.7075 17.9564 78.2898 18.134 77.9922 18.4988C77.6946 18.8636 77.5458 19.3869 77.5458 20.0685H76.9409C76.9409 19.3101 77.0513 18.662 77.2721 18.1244C77.493 17.5771 77.8098 17.1643 78.2226 16.8859C78.6355 16.5979 79.1251 16.4539 79.6915 16.4539C80.5652 16.4539 81.2372 16.7227 81.7077 17.2603C82.1877 17.7883 82.4277 18.6044 82.4277 19.7085L80.8148 20.1405ZM85.7112 20.1405C85.7112 19.5645 85.644 19.1228 85.5096 18.8156C85.3751 18.4988 85.1879 18.278 84.9479 18.1532C84.7175 18.0284 84.4487 17.966 84.1415 17.966C83.5942 17.9564 83.1718 18.134 82.8742 18.4988C82.5765 18.8636 82.4277 19.3869 82.4277 20.0685H81.8229C81.8229 19.3101 81.9333 18.662 82.1541 18.1244C82.3749 17.5771 82.6918 17.1643 83.1046 16.8859C83.5174 16.5979 84.007 16.4539 84.5735 16.4539C85.4472 16.4539 86.124 16.7227 86.604 17.2603C87.0841 17.7883 87.3193 18.6044 87.3097 19.7085L85.7112 20.1405Z" fill="white"/>
<path d="M88.7685 23.8272L88.7829 16.6267H90.3814L90.367 23.8272H88.7685ZM89.5749 15.2586C89.3157 15.2586 89.0901 15.1674 88.8981 14.9849C88.7157 14.7929 88.6245 14.5673 88.6245 14.3081C88.6245 14.0489 88.7157 13.8281 88.8981 13.6456C89.0901 13.4632 89.3157 13.372 89.5749 13.372C89.8342 13.372 90.055 13.4632 90.2374 13.6456C90.4294 13.8281 90.5254 14.0489 90.5254 14.3081C90.5254 14.5673 90.4294 14.7929 90.2374 14.9849C90.055 15.1674 89.8342 15.2586 89.5749 15.2586Z" fill="white"/>
<path d="M95.2778 24C94.5769 24 93.9529 23.8416 93.4056 23.5248C92.8584 23.1983 92.4311 22.7519 92.1239 22.1855C91.8167 21.619 91.6631 20.9662 91.6631 20.2269C91.6631 19.4877 91.8215 18.8348 92.1383 18.2684C92.4551 17.7019 92.8872 17.2603 93.4344 16.9435C93.9817 16.6171 94.6153 16.4539 95.3354 16.4539C95.969 16.4539 96.545 16.6219 97.0635 16.9579C97.5819 17.2843 97.99 17.7595 98.2876 18.3836C98.5948 19.0076 98.7484 19.7517 98.7484 20.6158H97.1211C97.1307 19.9917 97.0587 19.4781 96.9051 19.0748C96.7611 18.6716 96.5498 18.374 96.2714 18.182C95.993 17.9804 95.6618 17.8796 95.2778 17.8796C94.8745 17.8796 94.5289 17.9708 94.2409 18.1532C93.9625 18.3356 93.7464 18.6044 93.5928 18.9596C93.4392 19.3053 93.3624 19.7421 93.3624 20.2701C93.3624 20.7406 93.4536 21.1438 93.636 21.4798C93.8184 21.8158 94.0633 22.0751 94.3705 22.2575C94.6873 22.4303 95.0377 22.5167 95.4218 22.5167C95.8442 22.5167 96.1946 22.4207 96.473 22.2287C96.7515 22.0271 96.9675 21.7726 97.1211 21.4654L98.6044 22.0991C98.4028 22.4831 98.1484 22.8191 97.8411 23.1071C97.5339 23.3952 97.1643 23.616 96.7323 23.7696C96.3002 23.9232 95.8154 24 95.2778 24ZM92.7144 20.6158L92.7288 19.3341H97.9131V20.6158H92.7144Z" fill="white"/>
<path d="M14.9451 15.3372C14.9513 15.3785 14.9768 15.4143 15.0138 15.4337C15.0508 15.453 15.0948 15.4536 15.1322 15.4352L20.5902 12.7559C20.6248 12.7389 20.6502 12.7075 20.6595 12.67C20.7284 12.3937 20.7507 12.1196 20.7507 11.8241C20.7507 11.4973 20.7055 11.1993 20.6616 10.9358C20.6547 10.8939 20.6279 10.858 20.5897 10.8395L15.1318 8.18644C15.0946 8.16839 15.0511 8.16892 15.0144 8.18787C14.9777 8.20683 14.9521 8.24198 14.9454 8.28272L14.9446 8.28755C14.9238 8.41244 14.9011 8.54893 14.9 8.68744C14.8781 8.82713 14.8781 8.98919 14.8781 9.13797V9.14476C14.8781 9.20035 14.8835 9.26127 14.8885 9.31806L14.8895 9.33019C14.895 9.39291 14.8999 9.45328 14.8999 9.51251C14.8999 9.5197 14.9005 9.52688 14.9017 9.53397C14.9112 9.59119 14.9163 9.64894 14.9216 9.70975L14.9223 9.71764C14.9276 9.7787 14.9336 9.84554 14.9463 9.90689C14.9549 9.9481 14.9828 9.98268 15.0212 9.99983L19.0593 11.8002L15.0194 13.6754C14.9819 13.6928 14.9548 13.727 14.9463 13.7675C14.9244 13.8732 14.9011 14.0103 14.9 14.1511C14.8781 14.2895 14.8781 14.427 14.8781 14.5762V14.5822C14.8781 14.8012 14.9009 15.0446 14.9451 15.3372Z" fill="#FD5B4F"/>
<path fill-rule="evenodd" clip-rule="evenodd" d="M13.1339 5.38281C13.1709 5.40216 13.1964 5.43797 13.2026 5.47923C13.2468 5.77188 13.2696 6.0153 13.2696 6.2343V6.24036C13.2696 6.38954 13.2696 6.52697 13.2477 6.66539C13.2466 6.80616 13.2233 6.94331 13.2013 7.04896C13.1929 7.08949 13.1658 7.12365 13.1283 7.14108L9.0884 9.01628L13.1265 10.8167C13.1649 10.8338 13.1928 10.8684 13.2013 10.9096C13.2141 10.9709 13.2201 11.0378 13.2254 11.0988L13.2261 11.1067C13.2314 11.1675 13.2365 11.2253 13.246 11.2825C13.2472 11.2896 13.2478 11.2968 13.2478 11.304C13.2478 11.3632 13.2527 11.4236 13.2582 11.4863L13.2592 11.4984C13.2642 11.5552 13.2696 11.6161 13.2696 11.6717V11.6786C13.2696 11.8273 13.2696 11.9894 13.2477 12.129C13.2466 12.2675 13.2239 12.404 13.2031 12.5289L13.2023 12.5338C13.1955 12.5745 13.1699 12.6097 13.1333 12.6286C13.0966 12.6476 13.0531 12.6481 13.0159 12.63L7.55795 9.97699C7.5198 9.95844 7.493 9.92256 7.48604 9.88071C7.44223 9.61718 7.39694 9.31917 7.39694 8.99241C7.39694 8.69683 7.41926 8.42277 7.48816 8.14644C7.49749 8.109 7.52286 8.07759 7.5575 8.06059L13.0155 5.38127C13.0529 5.36288 13.0969 5.36345 13.1339 5.38281Z" fill="#FD5B4F"/>
<path fill-rule="evenodd" clip-rule="evenodd" d="M25.2019 0.589355H2.94567C1.31882 0.589355 0 1.90818 0 3.53502V17.2815C0 18.9083 1.31882 20.2271 2.94567 20.2271H25.2019C26.8287 20.2271 28.1475 18.9083 28.1475 17.2815V3.53502C28.1475 1.90818 26.8287 0.589355 25.2019 0.589355ZM1.63648 3.53502C1.63648 2.81198 2.22263 2.22584 2.94567 2.22584H25.2019C25.9249 2.22584 26.511 2.81198 26.511 3.53502V17.2815C26.511 18.0045 25.9249 18.5907 25.2019 18.5907H2.94567C2.22263 18.5907 1.63648 18.0045 1.63648 17.2815V3.53502Z" fill="#FD5B4F"/>
<path d="M3.10932 21.8636C2.65742 21.8636 2.29108 22.23 2.29108 22.6819C2.29108 23.1338 2.65742 23.5001 3.10932 23.5001H25.0382C25.4901 23.5001 25.8565 23.1338 25.8565 22.6819C25.8565 22.23 25.4901 21.8636 25.0382 21.8636H3.10932Z" fill="#FD5B4F"/>
</svg>
